<?xml version="1.0" encoding="UTF-8" standalone="no"?>
<!DOCTYPE svg PUBLIC "-//W3C//DTD SVG 1.1//EN" "http://www.w3.org/Graphics/SVG/1.1/DTD/svg11.dtd">
<svg width="100%" height="100%" viewBox="0 0 521 600" version="1.1" xmlns="http://www.w3.org/2000/svg" xmlns:xlink="http://www.w3.org/1999/xlink" xml:space="preserve" xmlns:serif="http://www.serif.com/" style="fill-rule:evenodd;clip-rule:evenodd;stroke-linecap:square;stroke-miterlimit:1.5;">
    <style>
        @import url(https://fonts.bunny.net/css?family=victor-mono:300,700);
    </style>
    <g id="sticker" transform="matrix(4.166667,0,0,4.166667,-123.564151,-126.71)">
        <g id="sticker-background" transform="matrix(0.918415,0,0,0.916551,29.655396,138.397522)">
            <path d="M0,-78.539L0,0.001L68.02,39.28L136.04,0.001L136.04,-78.539L68.02,-117.819L0,-78.539Z" style="fill:rgb(255,177,59);fill-rule:nonzero;"/>
            <path d="M0,-78.539L68.02,-117.819L136.04,-78.539L136.04,0.001L68.02,39.28L0,0.001L0,-78.539ZM5.444,-75.387L5.444,-3.151L68.02,32.984L130.596,-3.151L130.596,-75.387L68.02,-111.523L5.444,-75.387Z" style="fill:rgb(153,106,35);"/>
        </g>
        <g id="document" transform="matrix(1,0,0,1,7.865005,3.84)">
            <g id="document-body">
                <g>
                    <g transform="matrix(0.239362,0,0,0.239362,30.212763,0.14891)">
                        <path d="M424.302,277.064L424.302,468.588L257.918,468.588L257.918,233.274L352.255,233.274L352.255,233.976L424.302,277.064Z" style="fill:white;"/>
                        <path d="M424.302,277.064L424.302,468.588L257.918,468.588L257.918,233.274L352.255,233.274L352.255,233.976L424.302,277.064ZM349.927,237.451L262.096,237.451L262.096,464.41L420.124,464.41L420.124,279.434L349.927,237.451Z" style="fill:rgb(153,106,35);"/>
                    </g>
                    <g transform="matrix(0.275628,0,0,0.290905,-4.193125,-31.428591)">
                        <path d="M368.296,371.42L465.558,371.42" style="fill:none;stroke:rgb(153,106,35);stroke-width:3.53px;"/>
                    </g>
                    <g transform="matrix(0.088926,0,0,0.290905,82.727404,-16.2392)">
                        <path d="M368.296,371.42L465.558,371.42" style="fill:none;stroke:rgb(153,106,35);stroke-width:4.65px;"/>
                    </g>
                    <g transform="matrix(0.088926,0,0,0.290905,82.727404,-11.176069)">
                        <path d="M368.296,371.42L465.558,371.42" style="fill:none;stroke:rgb(153,106,35);stroke-width:4.65px;"/>
                    </g>
                    <g transform="matrix(0.275628,0,0,0.290905,-4.193125,-6.112939)">
                        <path d="M368.296,371.42L465.558,371.42" style="fill:none;stroke:rgb(153,106,35);stroke-width:3.53px;"/>
                    </g>
                    <g transform="matrix(0.275628,0,0,0.290905,-4.193125,-1.049809)">
                        <path d="M368.296,371.42L465.558,371.42" style="fill:none;stroke:rgb(153,106,35);stroke-width:3.53px;"/>
                    </g>
                    <g transform="matrix(0.275628,0,0,0.901667,-4.193125,-253.214631)">
                        <path d="M368.296,371.42L465.558,371.42" style="fill:none;stroke:rgb(153,106,35);stroke-width:1.5px;"/>
                    </g>
                    <g transform="matrix(0.088926,0,0,0.290905,82.727404,-21.30233)">
                        <path d="M368.296,371.42L465.558,371.42" style="fill:none;stroke:rgb(153,106,35);stroke-width:4.65px;"/>
                    </g>
                    <g transform="matrix(0.275628,0,0,0.382202,-4.193125,-70.401367)">
                        <path d="M368.296,371.42L465.558,371.42" style="fill:none;stroke:rgb(153,106,35);stroke-width:3px;"/>
                    </g>
                    <g transform="matrix(0.144705,0,0,0.290905,44.025366,-46.617981)">
                        <path d="M368.296,371.42L465.558,371.42" style="fill:none;stroke:rgb(153,106,35);stroke-width:4.35px;"/>
                    </g>
                    <g transform="matrix(0.231165,0,0,0.464719,12.182389,-106.112895)">
                        <path d="M368.296,371.42L465.558,371.42" style="fill:none;stroke:rgb(153,106,35);stroke-width:2.72px;"/>
                    </g>
                </g>
            </g>
            <g id="document-chart" transform="matrix(0.369329,0,0,0.356184,92.168881,71.391263)">
                <g transform="matrix(0.24,0,0,0.24,-32.64,-28.08)">
                    <rect x="201" y="285" width="157.165" height="141.688" style="fill:rgb(222,222,222);"/>
                    <path d="M358.165,285L358.165,426.688L201,426.688L201,285L358.165,285ZM352.524,290.849L206.641,290.849L206.641,420.839L352.524,420.839L352.524,290.849Z" style="fill:rgb(17,0,255);"/>
                </g>
                <g transform="matrix(0.037227,0,0,0.086294,11.042809,23.031898)">
                    <rect x="201" y="285" width="157.165" height="141.688" style="fill:rgb(17,0,255);"/>
                    <path d="M358.165,285L358.165,426.688L201,426.688L201,285L358.165,285ZM285.432,317.534L273.733,317.535L273.733,394.153L285.432,394.153L285.432,317.534Z" style="fill:rgb(17,0,255);"/>
                </g>
                <g transform="matrix(0.037227,0,0,0.11509,19.383955,10.745111)">
                    <rect x="201" y="285" width="157.165" height="141.688" style="fill:rgb(17,0,255);"/>
                    <path d="M358.165,285L358.165,426.688L201,426.688L201,285L358.165,285ZM285.432,309.394L273.733,309.394L273.733,402.293L285.432,402.293L285.432,309.394Z" style="fill:rgb(17,0,255);"/>
                </g>
                <g transform="matrix(0.037227,0,0,0.061531,27.725101,33.597978)">
                    <rect x="201" y="285" width="157.165" height="141.688" style="fill:rgb(17,0,255);"/>
                    <path d="M358.165,285L358.165,426.688L201,426.688L201,285L358.165,285ZM285.432,330.628L273.733,330.628L273.733,381.06L285.432,381.06L285.432,330.628Z" style="fill:rgb(17,0,255);"/>
                </g>
                <g transform="matrix(0.037227,0,0,0.093133,36.066248,20.114014)">
                    <rect x="201" y="285" width="157.165" height="141.688" style="fill:rgb(17,0,255);"/>
                    <path d="M358.165,285L358.165,426.688L201,426.688L201,285L358.165,285ZM285.432,315.146L273.733,315.146L273.733,396.542L285.432,396.542L285.432,315.146Z" style="fill:rgb(17,0,255);"/>
                </g>
                <g transform="matrix(0.24,0,0,0.086294,-32.64,37.504421)">
                    <rect x="201" y="285" width="157.165" height="141.688" style="fill:rgb(17,0,255);"/>
                </g>
                <g transform="matrix(0.175082,0,0,0.175082,-13.863386,-6.214592)">
                    <g transform="matrix(51.404494,0,0,51.404494,338.311854,439.813937)">
                    </g>
                    <text x="198.118px" y="439.814px" style="font-family:'VictorMono-Regular', 'Victor Mono', monospace;font-size:51.404px;fill:white;">&lt;svg&gt;</text>
                </g>
            </g>
        </g>
        <g id="chart" transform="matrix(0.828678,0,0,0.799185,31.330141,42.176956)">
            <g transform="matrix(0.24,0,0,0.24,-32.64,-28.08)">
                <rect x="201" y="285" width="157.165" height="141.688" style="fill:rgb(222,222,222);"/>
                <path d="M358.165,285L358.165,426.688L201,426.688L201,285L358.165,285ZM353.137,290.214L206.028,290.214L206.028,421.474L353.137,421.474L353.137,290.214Z" style="fill:rgb(17,0,255);"/>
            </g>
            <g transform="matrix(0.037227,0,0,0.086294,11.042809,23.031898)">
                <rect x="201" y="285" width="157.165" height="141.688" style="fill:rgb(17,0,255);"/>
                <path d="M358.165,285L358.165,426.688L201,426.688L201,285L358.165,285ZM325.749,299.5L233.416,299.5L233.416,412.187L325.749,412.188L325.749,299.5Z" style="fill:rgb(17,0,255);"/>
            </g>
            <g transform="matrix(0.037227,0,0,0.11509,19.383955,10.745111)">
                <rect x="201" y="285" width="157.165" height="141.688" style="fill:rgb(17,0,255);"/>
                <path d="M358.165,285L358.165,426.688L201,426.688L201,285L358.165,285ZM325.749,295.872L233.416,295.872L233.416,415.815L325.749,415.815L325.749,295.872Z" style="fill:rgb(17,0,255);"/>
            </g>
            <g transform="matrix(0.037227,0,0,0.061531,27.725101,33.597978)">
                <rect x="201" y="285" width="157.165" height="141.688" style="fill:rgb(17,0,255);"/>
                <path d="M358.165,285L358.165,426.688L201,426.688L201,285L358.165,285ZM325.749,305.336L233.416,305.336L233.416,406.352L325.749,406.352L325.749,305.336Z" style="fill:rgb(17,0,255);"/>
            </g>
            <g transform="matrix(0.037227,0,0,0.093133,36.066248,20.114014)">
                <rect x="201" y="285" width="157.165" height="141.688" style="fill:rgb(17,0,255);"/>
                <path d="M358.165,285L358.165,426.688L201,426.688L201,285L358.165,285ZM325.749,298.435L233.416,298.435L233.416,413.252L325.749,413.252L325.749,298.435Z" style="fill:rgb(17,0,255);"/>
            </g>
            <g transform="matrix(0.24,0,0,0.086294,-32.64,37.504421)">
                <rect x="201" y="285" width="157.165" height="141.688" style="fill:rgb(17,0,255);"/>
            </g>
            <g transform="matrix(0.175082,0,0,0.175082,-13.863386,-6.214592)">
                <g transform="matrix(51.404494,0,0,51.404494,338.311854,439.813937)">
                </g>
                <text x="198.118px" y="439.814px" style="font-family:'VictorMono-Regular', 'Victor Mono', monospace;font-size:51.404px;fill:white;">&lt;svg&gt;</text>
            </g>
        </g>
        <g id="package-title" transform="matrix(0.24,0,0,0.24,-28.493979,-0.090632)">
            <g transform="matrix(83.333333,0,0,83.333333,705.100944,558.97898)">
            </g>
            <text x="296.01px" y="558.979px" style="font-family:'VictorMono-Bold', 'Victor Mono', monospace;font-weight:700;font-size:83.333px;">inlinesvg</text>
        </g>
        <g id="arrow" transform="matrix(0.221818,0.038215,-0.044982,0.261093,23.183863,-24.843669)">
            <path d="M329.64,403.56L346.164,390.19L329.64,378.932L399.221,384.145L383.858,366.618L438.269,391.246L383.858,417.234L400.818,398.536L329.64,403.56Z" style="fill:rgb(17,0,255);"/>
            <path d="M326.576,400.827L339.421,390.434L326.86,381.876C325.333,380.836 324.787,379.068 325.517,377.525C326.247,375.982 328.08,375.026 330.03,375.172L389.738,379.645L380.295,368.872C379.053,367.455 379.134,365.496 380.49,364.157C381.845,362.818 384.112,362.456 385.947,363.287L440.358,387.915C441.791,388.563 442.693,389.824 442.711,391.203C442.73,392.582 441.861,393.86 440.446,394.536L386.036,420.525C384.195,421.404 381.88,421.061 380.498,419.704C379.117,418.347 379.05,416.352 380.339,414.931L391.156,403.006L330.008,407.322C328.13,407.454 326.358,406.566 325.587,405.106C324.815,403.646 325.211,401.931 326.576,400.827ZM329.64,403.56L400.818,398.536L383.858,417.234L438.269,391.246L383.858,366.618L399.221,384.145L329.64,378.932L346.164,390.19L329.64,403.56Z" style="fill:white;"/>
        </g>
    </g>
</svg>
