<?xml version="1.0" encoding="UTF-8" standalone="no"?>
<!DOCTYPE svg PUBLIC "-//W3C//DTD SVG 1.1//EN" "http://www.w3.org/Graphics/SVG/1.1/DTD/svg11.dtd">
<svg width="100%" height="100%" viewBox="0 0 521 600" version="1.1" xmlns="http://www.w3.org/2000/svg" xmlns:xlink="http://www.w3.org/1999/xlink" xml:space="preserve" xmlns:serif="http://www.serif.com/" style="fill-rule:evenodd;clip-rule:evenodd;stroke-linecap:square;stroke-miterlimit:1.5;">
    <g id="sticker" transform="matrix(4.166667,0,0,4.166667,-123.564151,-126.71)">
        <g id="sticker-background" transform="matrix(0.918415,0,0,0.916551,29.655396,138.397522)">
            <path d="M0,-78.539L0,0.001L68.02,39.28L136.04,0.001L136.04,-78.539L68.02,-117.819L0,-78.539Z" style="fill:rgb(255,177,59);fill-rule:nonzero;"/>
            <path d="M0,-78.539L68.02,-117.819L136.04,-78.539L136.04,0.001L68.02,39.28L0,0.001L0,-78.539ZM5.444,-75.387L5.444,-3.151L68.02,32.984L130.596,-3.151L130.596,-75.387L68.02,-111.523L5.444,-75.387Z" style="fill:rgb(153,106,35);"/>
        </g>
        <g id="document" transform="matrix(1,0,0,1,7.865005,3.84)">
            <g id="document-body">
                <g>
                    <g transform="matrix(0.239362,0,0,0.239362,30.212763,0.14891)">
                        <path d="M424.302,277.064L424.302,468.588L257.918,468.588L257.918,233.274L352.255,233.274L352.255,233.976L424.302,277.064Z" style="fill:white;"/>
                        <path d="M424.302,277.064L424.302,468.588L257.918,468.588L257.918,233.274L352.255,233.274L352.255,233.976L424.302,277.064ZM349.927,237.451L262.096,237.451L262.096,464.41L420.124,464.41L420.124,279.434L349.927,237.451Z" style="fill:rgb(153,106,35);"/>
                    </g>
                    <g transform="matrix(0.275628,0,0,0.290905,-4.193125,-31.428591)">
                        <path d="M368.296,371.42L465.558,371.42" style="fill:none;stroke:rgb(153,106,35);stroke-width:3.53px;"/>
                    </g>
                    <g transform="matrix(0.088926,0,0,0.290905,82.727404,-16.2392)">
                        <path d="M368.296,371.42L465.558,371.42" style="fill:none;stroke:rgb(153,106,35);stroke-width:4.65px;"/>
                    </g>
                    <g transform="matrix(0.088926,0,0,0.290905,82.727404,-11.176069)">
                        <path d="M368.296,371.42L465.558,371.42" style="fill:none;stroke:rgb(153,106,35);stroke-width:4.65px;"/>
                    </g>
                    <g transform="matrix(0.275628,0,0,0.290905,-4.193125,-6.112939)">
                        <path d="M368.296,371.42L465.558,371.42" style="fill:none;stroke:rgb(153,106,35);stroke-width:3.53px;"/>
                    </g>
                    <g transform="matrix(0.275628,0,0,0.290905,-4.193125,-1.049809)">
                        <path d="M368.296,371.42L465.558,371.42" style="fill:none;stroke:rgb(153,106,35);stroke-width:3.53px;"/>
                    </g>
                    <g transform="matrix(0.275628,0,0,0.901667,-4.193125,-253.214631)">
                        <path d="M368.296,371.42L465.558,371.42" style="fill:none;stroke:rgb(153,106,35);stroke-width:1.5px;"/>
                    </g>
                    <g transform="matrix(0.088926,0,0,0.290905,82.727404,-21.30233)">
                        <path d="M368.296,371.42L465.558,371.42" style="fill:none;stroke:rgb(153,106,35);stroke-width:4.65px;"/>
                    </g>
                    <g transform="matrix(0.275628,0,0,0.382202,-4.193125,-70.401367)">
                        <path d="M368.296,371.42L465.558,371.42" style="fill:none;stroke:rgb(153,106,35);stroke-width:3px;"/>
                    </g>
                    <g transform="matrix(0.144705,0,0,0.290905,44.025366,-46.617981)">
                        <path d="M368.296,371.42L465.558,371.42" style="fill:none;stroke:rgb(153,106,35);stroke-width:4.35px;"/>
                    </g>
                    <g transform="matrix(0.231165,0,0,0.464719,12.182389,-106.112895)">
                        <path d="M368.296,371.42L465.558,371.42" style="fill:none;stroke:rgb(153,106,35);stroke-width:2.72px;"/>
                    </g>
                </g>
            </g>
            <g id="document-chart" transform="matrix(0.369329,0,0,0.356184,92.168881,71.391263)">
                <g transform="matrix(0.24,0,0,0.24,-32.64,-28.08)">
                    <rect x="201" y="285" width="157.165" height="141.688" style="fill:rgb(222,222,222);"/>
                    <path d="M358.165,285L358.165,426.688L201,426.688L201,285L358.165,285ZM352.524,290.849L206.641,290.849L206.641,420.839L352.524,420.839L352.524,290.849Z" style="fill:rgb(17,0,255);"/>
                </g>
                <g transform="matrix(0.037227,0,0,0.086294,11.042809,23.031898)">
                    <rect x="201" y="285" width="157.165" height="141.688" style="fill:rgb(17,0,255);"/>
                    <path d="M358.165,285L358.165,426.688L201,426.688L201,285L358.165,285ZM285.432,317.534L273.733,317.535L273.733,394.153L285.432,394.153L285.432,317.534Z" style="fill:rgb(17,0,255);"/>
                </g>
                <g transform="matrix(0.037227,0,0,0.11509,19.383955,10.745111)">
                    <rect x="201" y="285" width="157.165" height="141.688" style="fill:rgb(17,0,255);"/>
                    <path d="M358.165,285L358.165,426.688L201,426.688L201,285L358.165,285ZM285.432,309.394L273.733,309.394L273.733,402.293L285.432,402.293L285.432,309.394Z" style="fill:rgb(17,0,255);"/>
                </g>
                <g transform="matrix(0.037227,0,0,0.061531,27.725101,33.597978)">
                    <rect x="201" y="285" width="157.165" height="141.688" style="fill:rgb(17,0,255);"/>
                    <path d="M358.165,285L358.165,426.688L201,426.688L201,285L358.165,285ZM285.432,330.628L273.733,330.628L273.733,381.06L285.432,381.06L285.432,330.628Z" style="fill:rgb(17,0,255);"/>
                </g>
                <g transform="matrix(0.037227,0,0,0.093133,36.066248,20.114014)">
                    <rect x="201" y="285" width="157.165" height="141.688" style="fill:rgb(17,0,255);"/>
                    <path d="M358.165,285L358.165,426.688L201,426.688L201,285L358.165,285ZM285.432,315.146L273.733,315.146L273.733,396.542L285.432,396.542L285.432,315.146Z" style="fill:rgb(17,0,255);"/>
                </g>
                <g transform="matrix(0.24,0,0,0.086294,-32.64,37.504421)">
                    <rect x="201" y="285" width="157.165" height="141.688" style="fill:rgb(17,0,255);"/>
                </g>
                <g transform="matrix(0.175082,0,0,0.175082,-13.863386,-6.214592)">
                    <g transform="matrix(51.404494,0,0,51.404494,338.311854,439.813937)">
                    </g>
                    <text x="198.118px" y="439.814px" style="font-family:'VictorMono-Regular', 'Victor Mono', monospace;font-size:51.404px;fill:white;">&lt;svg&gt;</text>
                </g>
            </g>
        </g>
        <g id="chart" transform="matrix(0.828678,0,0,0.799185,31.330141,42.176956)">
            <g transform="matrix(0.24,0,0,0.24,-32.64,-28.08)">
                <rect x="201" y="285" width="157.165" height="141.688" style="fill:rgb(222,222,222);"/>
                <path d="M358.165,285L358.165,426.688L201,426.688L201,285L358.165,285ZM355.651,287.607L203.514,287.607L203.514,424.081L355.651,424.081L355.651,287.607Z" style="fill:rgb(17,0,255);"/>
            </g>
            <g transform="matrix(0.037227,0,0,0.086294,11.042809,23.031898)">
                <rect x="201" y="285" width="157.165" height="141.688" style="fill:rgb(17,0,255);"/>
                <path d="M358.165,285L358.165,426.688L201,426.688L201,285L358.165,285ZM325.749,299.5L233.416,299.5L233.416,412.187L325.749,412.188L325.749,299.5Z" style="fill:rgb(17,0,255);"/>
            </g>
            <g transform="matrix(0.037227,0,0,0.11509,19.383955,10.745111)">
                <rect x="201" y="285" width="157.165" height="141.688" style="fill:rgb(17,0,255);"/>
                <path d="M358.165,285L358.165,426.688L201,426.688L201,285L358.165,285ZM325.749,295.872L233.416,295.872L233.416,415.815L325.749,415.815L325.749,295.872Z" style="fill:rgb(17,0,255);"/>
            </g>
            <g transform="matrix(0.037227,0,0,0.061531,27.725101,33.597978)">
                <rect x="201" y="285" width="157.165" height="141.688" style="fill:rgb(17,0,255);"/>
                <path d="M358.165,285L358.165,426.688L201,426.688L201,285L358.165,285ZM325.749,305.336L233.416,305.336L233.416,406.352L325.749,406.352L325.749,305.336Z" style="fill:rgb(17,0,255);"/>
            </g>
            <g transform="matrix(0.037227,0,0,0.093133,36.066248,20.114014)">
                <rect x="201" y="285" width="157.165" height="141.688" style="fill:rgb(17,0,255);"/>
                <path d="M358.165,285L358.165,426.688L201,426.688L201,285L358.165,285ZM325.749,298.435L233.416,298.435L233.416,413.252L325.749,413.252L325.749,298.435Z" style="fill:rgb(17,0,255);"/>
            </g>
            <g transform="matrix(0.24,0,0,0.086294,-32.64,37.504421)">
                <rect x="201" y="285" width="157.165" height="141.688" style="fill:rgb(17,0,255);"/>
            </g>
            <g transform="matrix(0.175082,0,0,0.175082,-13.863386,-6.214592)">
                <g transform="matrix(51.404494,0,0,51.404494,338.311854,439.813937)">
                </g>
                <text x="198.118px" y="439.814px" style="font-family:'VictorMono-Regular', 'Victor Mono', monospace;font-size:51.404px;fill:white;">&lt;svg&gt;</text>
            </g>
        </g>
        <g id="package-title" transform="matrix(0.24,0,0,0.24,-28.493979,-0.090632)">
            <g transform="matrix(83.333333,0,0,83.333333,705.100944,558.97898)">
            </g>
            <text x="296.01px" y="558.979px" style="font-family:'VictorMono-Bold', 'Victor Mono', monospace;font-weight:700;font-size:83.333px;">inlinesvg</text>
            <path d="M691.843,510.428L691.843,510.077L700.555,510.077C701.706,510.077 702.639,511.01 702.639,512.161L702.639,554.13C702.639,559.321 701.967,563.424 700.696,566.452C699.305,569.766 697.049,572.186 693.942,573.725C691.061,575.151 687.16,575.911 682.222,575.911C678.321,575.911 675.221,575.341 672.908,574.282C670.574,573.214 668.233,571.329 665.927,568.573C665.195,567.698 665.303,566.397 666.169,565.655L672.533,560.2C672.954,559.839 673.501,559.661 674.054,559.705C674.606,559.749 675.119,560.011 675.477,560.434C676.655,561.822 677.618,562.765 678.438,563.186C679.223,563.588 680.492,563.714 682.222,563.714C684.413,563.714 686.096,563.497 687.256,562.96C688.116,562.561 688.7,561.857 689.05,560.886C689.361,560.025 689.56,558.912 689.666,557.548C687.12,558.223 684.463,558.562 681.692,558.562C676.526,558.562 672.457,557.572 669.457,555.711C666.337,553.776 664.059,550.729 662.701,546.511C661.463,542.666 660.821,537.48 660.821,530.949C660.821,525.857 661.519,521.774 662.846,518.687C664.287,515.335 666.6,512.87 669.775,511.282C672.736,509.802 676.703,509.017 681.692,509.017C685.404,509.017 688.787,509.492 691.843,510.428ZM689.869,555.327C690.135,556.115 690.849,556.675 691.686,556.738L690.183,555.233C690.22,555.221 690.257,555.21 690.294,555.198L691.802,556.703C691.705,558.767 691.441,560.397 691.01,561.593C690.454,563.133 689.495,564.219 688.131,564.85C686.768,565.482 684.798,565.797 682.222,565.797C680.05,565.797 678.472,565.545 677.487,565.04C676.502,564.535 675.303,563.449 673.889,561.782L667.525,567.237C669.596,569.711 671.679,571.428 673.775,572.388C675.871,573.348 678.687,573.827 682.222,573.827C686.768,573.827 690.366,573.171 693.018,571.858C695.669,570.545 697.588,568.474 698.775,565.646C699.962,562.817 700.555,558.979 700.555,554.13L700.555,512.161L691.843,512.161L691.843,512.615C688.813,511.605 685.429,511.1 681.692,511.1C677.096,511.1 673.434,511.782 670.707,513.146C667.98,514.509 665.997,516.63 664.76,519.509C663.523,522.388 662.904,526.201 662.904,530.949C662.904,537.211 663.497,542.186 664.684,545.873C665.871,549.56 667.828,552.249 670.555,553.941C673.283,555.633 676.995,556.479 681.692,556.479C684.546,556.479 687.272,556.095 689.869,555.327ZM681.692,548.449C679.066,548.449 677.045,547.931 675.631,546.896C674.217,545.86 673.207,544.105 672.601,541.63C671.995,539.156 671.692,535.595 671.692,530.949C671.692,527.868 671.982,525.482 672.563,523.79C673.144,522.098 674.141,520.898 675.555,520.191C676.97,519.484 679.015,519.13 681.692,519.13C685.177,519.13 687.74,519.522 689.381,520.305C691.023,521.088 691.843,522.161 691.843,523.524L691.843,537.843C691.843,541.479 691.048,544.156 689.457,545.873C687.866,547.59 685.278,548.449 681.692,548.449ZM681.692,546.365C684.551,546.365 686.66,545.826 687.929,544.457C689.232,543.05 689.76,540.822 689.76,537.843L689.76,523.524C689.76,522.902 689.233,522.542 688.484,522.185C687.036,521.495 684.766,521.214 681.692,521.214C679.426,521.214 677.684,521.456 676.487,522.054C675.549,522.523 674.919,523.344 674.534,524.466C674.008,525.997 673.775,528.161 673.775,530.949C673.775,535.379 674.047,538.775 674.624,541.135C675.089,543.03 675.779,544.422 676.862,545.215C677.984,546.036 679.608,546.365 681.692,546.365ZM356.478,510.534C359.394,509.529 362.671,509.017 366.313,509.017C371.015,509.017 374.643,509.721 377.215,511.021C380.025,512.442 382.064,514.804 383.273,518.159C384.344,521.13 384.912,525.315 384.912,530.721L384.912,558.979C384.912,560.13 383.979,561.062 382.828,561.062L374.04,561.062C372.89,561.062 371.957,560.13 371.957,558.979L371.957,530.721C371.957,527.945 371.761,525.802 371.321,524.298C371.005,523.217 370.551,522.403 369.835,521.937C369.018,521.405 367.833,521.214 366.313,521.214C363.366,521.214 361.196,521.43 359.813,521.951C358.887,522.3 358.25,522.899 357.931,523.779C357.456,525.09 357.26,527.13 357.26,529.888L357.26,558.979C357.26,560.13 356.327,561.062 355.177,561.062L346.465,561.062C345.314,561.062 344.381,560.13 344.381,558.979L344.381,512.161C344.381,511.01 345.314,510.077 346.465,510.077L355.177,510.077C355.669,510.077 356.122,510.248 356.478,510.534ZM346.465,558.979L355.177,558.979L355.177,529.888C355.177,526.807 355.442,524.535 355.972,523.07C356.502,521.605 357.538,520.583 359.078,520.002C360.619,519.421 363.03,519.13 366.313,519.13C368.333,519.13 369.886,519.484 370.972,520.191C372.058,520.898 372.841,522.072 373.321,523.714C373.8,525.355 374.04,527.691 374.04,530.721L374.04,558.979L382.828,558.979L382.828,530.721C382.828,525.62 382.323,521.668 381.313,518.865C380.303,516.062 378.624,514.067 376.275,512.88C373.927,511.694 370.606,511.1 366.313,511.1C362.071,511.1 358.359,511.833 355.177,513.297L355.177,512.161L346.465,512.161L346.465,558.979ZM492.842,510.534C495.758,509.529 499.035,509.017 502.677,509.017C507.379,509.017 511.006,509.721 513.579,511.021C516.389,512.442 518.428,514.804 519.637,518.159C520.707,521.13 521.275,525.315 521.275,530.721L521.275,558.979C521.275,560.13 520.342,561.062 519.192,561.062L510.404,561.062C509.253,561.062 508.321,560.13 508.321,558.979L508.321,530.721C508.321,527.945 508.124,525.802 507.685,524.298C507.368,523.217 506.915,522.403 506.199,521.937C505.382,521.405 504.197,521.214 502.677,521.214C499.73,521.214 497.56,521.43 496.177,521.951C495.251,522.3 494.613,522.899 494.295,523.779C493.82,525.09 493.624,527.13 493.624,529.888L493.624,558.979C493.624,560.13 492.691,561.062 491.54,561.062L482.828,561.062C481.678,561.062 480.745,560.13 480.745,558.979L480.745,512.161C480.745,511.01 481.678,510.077 482.828,510.077L491.54,510.077C492.033,510.077 492.485,510.248 492.842,510.534ZM482.828,558.979L491.54,558.979L491.54,529.888C491.54,526.807 491.805,524.535 492.336,523.07C492.866,521.605 493.901,520.583 495.442,520.002C496.982,519.421 499.394,519.13 502.677,519.13C504.697,519.13 506.25,519.484 507.336,520.191C508.422,520.898 509.204,522.072 509.684,523.714C510.164,525.355 510.404,527.691 510.404,530.721L510.404,558.979L519.192,558.979L519.192,530.721C519.192,525.62 518.687,521.668 517.677,518.865C516.667,516.062 514.987,514.067 512.639,512.88C510.29,511.694 506.97,511.1 502.677,511.1C498.434,511.1 494.722,511.833 491.54,513.297L491.54,512.161L482.828,512.161L482.828,558.979ZM327.184,512.161L327.184,548.865L338.359,548.865C339.509,548.865 340.442,549.798 340.442,550.949L340.442,558.979C340.442,560.13 339.509,561.062 338.359,561.062L303.131,561.062C301.981,561.062 301.048,560.13 301.048,558.979L301.048,550.949C301.048,549.798 301.981,548.865 303.131,548.865L314.305,548.865L314.305,522.274L306.843,522.274C305.693,522.274 304.76,521.342 304.76,520.191L304.76,512.161C304.76,511.01 305.693,510.077 306.843,510.077L325.101,510.077C326.252,510.077 327.184,511.01 327.184,512.161ZM325.101,512.161L306.843,512.161L306.843,520.191L316.389,520.191L316.389,550.949L303.131,550.949L303.131,558.979L338.359,558.979L338.359,550.949L325.101,550.949L325.101,512.161ZM319.116,507.426C315.869,507.426 313.696,506.667 312.495,505.53C311.26,504.362 310.442,502.269 310.442,499.13C310.442,495.992 311.26,493.899 312.495,492.731C313.696,491.594 315.869,490.835 319.116,490.835C322.347,490.835 324.527,491.581 325.755,492.712C327.028,493.884 327.866,495.982 327.866,499.13C327.866,502.279 327.028,504.377 325.755,505.549C324.527,506.68 322.347,507.426 319.116,507.426ZM319.116,505.343C321.641,505.343 323.384,504.901 324.343,504.017C325.303,503.133 325.783,501.504 325.783,499.13C325.783,496.757 325.303,495.128 324.343,494.244C323.384,493.36 321.641,492.918 319.116,492.918C316.591,492.918 314.861,493.36 313.927,494.244C312.992,495.128 312.525,496.757 312.525,499.13C312.525,501.504 312.992,503.133 313.927,504.017C314.861,504.901 316.591,505.343 319.116,505.343ZM417.449,562.123C413.48,562.123 410.415,561.468 408.232,560.278C405.85,558.978 404.11,556.843 403.089,553.81C402.202,551.178 401.73,547.473 401.73,542.691L401.73,508.487L394.268,508.487C393.117,508.487 392.184,507.554 392.184,506.403L392.184,498.373C392.184,497.222 393.117,496.29 394.268,496.29L412.525,496.29C413.676,496.29 414.609,497.222 414.609,498.373L414.609,542.691C414.609,545.749 414.816,547.871 415.428,549.029C415.787,549.708 416.5,549.926 417.449,549.926C418.034,549.926 418.647,549.692 419.314,549.302C420.283,548.735 421.635,547.711 423.384,546.246C423.841,545.863 424.439,545.694 425.028,545.782C425.617,545.869 426.141,546.205 426.466,546.703L431.315,554.128C431.897,555.019 431.714,556.205 430.89,556.879C428.463,558.865 426.286,560.212 424.383,560.957C422.425,561.723 420.116,562.123 417.449,562.123ZM417.449,560.04C419.823,560.04 421.881,559.699 423.624,559.017C425.366,558.335 427.348,557.085 429.571,555.267L424.722,547.843C422.853,549.408 421.401,550.494 420.366,551.1C419.331,551.706 418.359,552.009 417.449,552.009C415.581,552.009 414.293,551.34 413.586,550.002C412.879,548.663 412.525,546.226 412.525,542.691L412.525,498.373L394.268,498.373L394.268,506.403L403.813,506.403L403.813,542.691C403.813,547.186 404.23,550.671 405.063,553.146C405.896,555.62 407.285,557.388 409.23,558.449C411.174,559.509 413.914,560.04 417.449,560.04ZM463.548,512.161L463.548,548.865L474.722,548.865C475.873,548.865 476.805,549.798 476.805,550.949L476.805,558.979C476.805,560.13 475.873,561.062 474.722,561.062L439.495,561.062C438.344,561.062 437.412,560.13 437.412,558.979L437.412,550.949C437.412,549.798 438.344,548.865 439.495,548.865L450.669,548.865L450.669,522.274L443.207,522.274C442.056,522.274 441.124,521.342 441.124,520.191L441.124,512.161C441.124,511.01 442.056,510.077 443.207,510.077L461.465,510.077C462.615,510.077 463.548,511.01 463.548,512.161ZM461.465,512.161L443.207,512.161L443.207,520.191L452.752,520.191L452.752,550.949L439.495,550.949L439.495,558.979L474.722,558.979L474.722,550.949L461.465,550.949L461.465,512.161ZM455.48,507.426C452.233,507.426 450.06,506.667 448.859,505.53C447.623,504.362 446.805,502.269 446.805,499.13C446.805,495.992 447.623,493.899 448.859,492.731C450.06,491.594 452.233,490.835 455.48,490.835C458.71,490.835 460.891,491.581 462.118,492.712C463.391,493.884 464.23,495.982 464.23,499.13C464.23,502.279 463.391,504.377 462.118,505.549C460.891,506.68 458.71,507.426 455.48,507.426ZM455.48,505.343C458.005,505.343 459.747,504.901 460.707,504.017C461.667,503.133 462.146,501.504 462.146,499.13C462.146,496.757 461.667,495.128 460.707,494.244C459.747,493.36 458.005,492.918 455.48,492.918C452.954,492.918 451.225,493.36 450.29,494.244C449.356,495.128 448.889,496.757 448.889,499.13C448.889,501.504 449.356,503.133 450.29,504.017C451.225,504.901 452.954,505.343 455.48,505.343ZM546.237,549.926C548.387,549.926 550.196,549.529 551.65,548.665C553.199,547.745 554.773,546.09 556.434,543.756C557.085,542.84 558.346,542.606 559.283,543.227L566.252,547.849C566.713,548.155 567.034,548.631 567.143,549.174C567.253,549.716 567.141,550.28 566.834,550.741C563.985,555.015 561.059,557.94 558.127,559.584C555.17,561.243 551.213,562.123 546.237,562.123C540.662,562.123 536.341,561.247 533.253,559.607C529.955,557.856 527.56,554.992 526.13,550.964C524.834,547.313 524.154,542.184 524.154,535.57C524.154,528.956 524.834,523.827 526.13,520.176C527.56,516.148 529.955,513.284 533.253,511.533C536.341,509.893 540.662,509.017 546.237,509.017C551.745,509.017 556.014,509.975 559.07,511.765C562.285,513.647 564.637,516.753 566.027,521.155C567.286,525.143 567.942,530.729 567.942,537.918C567.942,539.069 567.009,540.002 565.859,540.002L537.244,540.002C537.444,542.295 537.801,544.161 538.34,545.596C538.904,547.1 539.732,548.211 540.898,548.869C542.209,549.609 543.996,549.926 546.237,549.926ZM546.237,552.009C543.561,552.009 541.439,551.567 539.874,550.684C538.308,549.8 537.146,548.348 536.389,546.327C535.631,544.307 535.177,541.504 535.025,537.918L565.859,537.918C565.859,530.999 565.252,525.62 564.04,521.782C562.828,517.944 560.821,515.204 558.018,513.562C555.215,511.921 551.288,511.1 546.237,511.1C541.086,511.1 537.083,511.858 534.23,513.373C531.376,514.888 529.331,517.388 528.093,520.873C526.856,524.358 526.237,529.257 526.237,535.57C526.237,541.883 526.856,546.782 528.093,550.267C529.331,553.752 531.376,556.252 534.23,557.767C537.083,559.282 541.086,560.04 546.237,560.04C550.783,560.04 554.406,559.282 557.109,557.767C559.811,556.252 562.475,553.524 565.101,549.585L558.131,544.964C556.263,547.59 554.457,549.421 552.715,550.456C550.972,551.492 548.813,552.009 546.237,552.009ZM546.237,519.13C548.965,519.13 551.098,519.459 552.639,520.115C554.179,520.772 555.278,521.87 555.934,523.411C556.591,524.951 556.919,527.11 556.919,529.888L535.177,529.888C535.53,525.898 536.54,523.108 538.207,521.517C539.874,519.926 542.55,519.13 546.237,519.13ZM546.237,521.214C543.229,521.214 541.005,521.726 539.645,523.024C538.592,524.03 537.932,525.638 537.545,527.805L554.764,527.805C554.654,526.353 554.415,525.159 554.018,524.228C553.58,523.201 552.848,522.469 551.822,522.032C550.48,521.46 548.614,521.214 546.237,521.214ZM589.571,562.123C584.912,562.123 581.235,561.223 578.513,559.539C575.801,557.861 573.307,554.937 571.126,550.688C570.679,549.817 570.899,548.752 571.655,548.129L578.549,542.447C579.053,542.031 579.724,541.876 580.36,542.029C580.996,542.182 581.523,542.624 581.784,543.224C582.723,545.383 583.521,546.961 584.202,547.947C584.684,548.645 585.26,549.152 585.958,549.434C586.829,549.787 588.037,549.926 589.571,549.926C592.85,549.926 595.322,549.752 596.985,549.372C598.121,549.113 598.959,548.798 599.381,548.198C599.841,547.544 599.987,546.58 599.987,545.343C599.987,544.107 599.904,543.187 599.533,542.622C599.227,542.156 598.629,541.891 597.842,541.658C596.545,541.274 594.357,540.9 591.284,540.516C584.723,539.703 580.001,538.18 577.073,536.092C573.83,533.78 572.109,530.176 572.109,525.191C572.109,521.347 572.879,518.276 574.313,515.953C575.809,513.529 578.174,511.708 581.466,510.57C584.413,509.552 588.375,509.017 593.359,509.017C598.226,509.017 602.004,509.792 604.714,511.23C607.471,512.693 610.011,515.246 612.261,518.96C612.764,519.788 612.628,520.854 611.935,521.53L605.571,527.742C605.103,528.2 604.447,528.41 603.8,528.311C603.153,528.211 602.59,527.814 602.28,527.237C601.258,525.332 600.387,523.931 599.644,523.048C599.094,522.396 598.427,521.937 597.637,521.679C596.628,521.35 595.2,521.214 593.359,521.214C590.692,521.214 588.667,521.36 587.286,521.688C586.441,521.888 585.802,522.124 585.486,522.611C585.103,523.204 584.987,524.075 584.987,525.191C584.987,525.735 585.014,526.173 585.286,526.445C585.672,526.831 586.275,527.068 587.046,527.261C588.211,527.552 590.008,527.864 592.435,528.204L592.45,528.206C597.444,528.942 601.318,529.862 604.078,530.94C607.214,532.164 609.453,533.965 610.856,536.265C612.207,538.477 612.942,541.493 612.942,545.343C612.942,549.353 612.1,552.562 610.524,554.997C608.898,557.511 606.3,559.395 602.662,560.548C599.399,561.583 595.037,562.123 589.571,562.123ZM589.571,560.04C594.773,560.04 598.927,559.547 602.033,558.562C605.139,557.577 607.386,556.012 608.775,553.865C610.164,551.719 610.859,548.878 610.859,545.343C610.859,541.959 610.265,539.295 609.078,537.35C607.891,535.406 605.972,533.916 603.321,532.88C600.669,531.845 596.944,530.974 592.146,530.267C589.621,529.913 587.752,529.585 586.54,529.282C585.328,528.979 584.419,528.524 583.813,527.918C583.207,527.312 582.904,526.403 582.904,525.191C582.904,523.575 583.182,522.338 583.737,521.479C584.293,520.62 585.316,520.014 586.805,519.661C588.295,519.307 590.48,519.13 593.359,519.13C595.48,519.13 597.121,519.32 598.283,519.699C599.444,520.077 600.429,520.747 601.237,521.706C602.045,522.666 603.005,524.181 604.116,526.252L610.48,520.04C608.46,516.706 606.212,514.383 603.737,513.07C601.263,511.757 597.803,511.1 593.359,511.1C588.662,511.1 584.924,511.58 582.146,512.54C579.369,513.499 577.348,515.002 576.086,517.047C574.823,519.093 574.192,521.807 574.192,525.191C574.192,529.383 575.555,532.451 578.283,534.396C581.01,536.34 585.429,537.691 591.54,538.449C594.773,538.853 597.071,539.257 598.434,539.661C599.798,540.065 600.745,540.671 601.275,541.479C601.805,542.287 602.071,543.575 602.071,545.343C602.071,547.11 601.742,548.461 601.086,549.396C600.429,550.33 599.217,550.999 597.449,551.403C595.682,551.807 593.055,552.009 589.571,552.009C587.702,552.009 586.237,551.795 585.177,551.365C584.116,550.936 583.22,550.191 582.487,549.13C581.755,548.07 580.884,546.378 579.874,544.055L572.98,549.737C574.949,553.575 577.159,556.252 579.609,557.767C582.058,559.282 585.379,560.04 589.571,560.04ZM640.783,561.062L632.904,561.062C632.025,561.062 631.24,560.511 630.943,559.683L614.125,512.865C613.896,512.227 613.992,511.517 614.382,510.962C614.772,510.408 615.408,510.077 616.086,510.077L625.101,510.077C625.988,510.077 626.779,510.64 627.069,511.478L636.862,539.72L646.849,511.467C647.143,510.634 647.93,510.077 648.813,510.077L657.752,510.077C658.432,510.077 659.068,510.409 659.458,510.965C659.848,511.521 659.943,512.232 659.711,512.871L642.741,559.689C642.443,560.513 641.66,561.062 640.783,561.062ZM640.783,558.979L657.752,512.161L648.813,512.161L636.843,546.024L625.101,512.161L616.086,512.161L632.904,558.979L640.783,558.979Z" style="fill:white;"/>
        </g>
        <g id="arrow" transform="matrix(0.221818,0.038215,-0.044982,0.261093,23.183863,-24.843669)">
            <path d="M329.64,403.56L346.164,390.19L329.64,378.932L399.221,384.145L383.858,366.618L438.269,391.246L383.858,417.234L400.818,398.536L329.64,403.56Z" style="fill:rgb(17,0,255);"/>
            <path d="M326.576,400.827L339.421,390.434L326.86,381.876C325.333,380.836 324.787,379.068 325.517,377.525C326.247,375.982 328.08,375.026 330.03,375.172L389.738,379.645L380.295,368.872C379.053,367.455 379.134,365.496 380.49,364.157C381.845,362.818 384.112,362.456 385.947,363.287L440.358,387.915C441.791,388.563 442.693,389.824 442.711,391.203C442.73,392.582 441.861,393.86 440.446,394.536L386.036,420.525C384.195,421.404 381.88,421.061 380.498,419.704C379.117,418.347 379.05,416.352 380.339,414.931L391.156,403.006L330.008,407.322C328.13,407.454 326.358,406.566 325.587,405.106C324.815,403.646 325.211,401.931 326.576,400.827ZM329.64,403.56L400.818,398.536L383.858,417.234L438.269,391.246L383.858,366.618L399.221,384.145L329.64,378.932L346.164,390.19L329.64,403.56Z" style="fill:white;"/>
        </g>
    </g>
</svg>
